<mxfile host="app.diagrams.net" modified="2024-04-11T04:12:01.994Z" agent="Mozilla/5.0 (Windows NT 10.0; Win64; x64) AppleWebKit/537.36 (KHTML, like Gecko) Chrome/123.0.0.0 Safari/537.36" version="24.2.3" etag="3nhoWxM1hkP6E4IbR85k" type="github">
  <diagram name="Page-1" id="8RtPxjvXP_2GOiPI7j6U">
    <mxGraphModel>
      <root>
        <mxCell id="0" />
        <mxCell id="1" parent="0" />
      </root>
    </mxGraphModel>
  </diagram>
</mxfile>
